<?xml version="1.0" encoding="UTF-8" standalone="no"?>
<!-- Generator: Circuit Diagram, cdlibrary.dll 4.0.0.0 -->

<svg
   version="1.1"
   width="413.76309"
   height="170.01318"
   id="svg17"
   sodipodi:docname="voltmetre_diagrammes_ponts_diviseurs_de_tension_correct_incorrect.svg"
   xml:space="preserve"
   inkscape:version="1.3 (0e150ed6c4, 2023-07-21)"
   inkscape:export-filename="../png/voltmetre_diagrammes_ponts_diviseurs_de_tension.png"
   inkscape:export-xdpi="300"
   inkscape:export-ydpi="300"
   xmlns:inkscape="http://www.inkscape.org/namespaces/inkscape"
   xmlns:sodipodi="http://sodipodi.sourceforge.net/DTD/sodipodi-0.dtd"
   xmlns="http://www.w3.org/2000/svg"
   xmlns:svg="http://www.w3.org/2000/svg"><defs
     id="defs17"><linearGradient
       id="linearGradient828"
       inkscape:swatch="solid"><stop
         style="stop-color:#ff0000;stop-opacity:1;"
         offset="0"
         id="stop826" /></linearGradient><linearGradient
       id="0"
       gradientUnits="userSpaceOnUse"
       y1="47.37"
       x2="0"
       y2="-1.429"><stop
         stop-color="#c52828"
         id="stop2" /><stop
         offset="1"
         stop-color="#ff5454"
         id="stop4" /></linearGradient></defs><sodipodi:namedview
     id="namedview17"
     pagecolor="#ffffff"
     bordercolor="#000000"
     borderopacity="0.25"
     inkscape:showpageshadow="2"
     inkscape:pageopacity="0.0"
     inkscape:pagecheckerboard="0"
     inkscape:deskcolor="#d1d1d1"
     inkscape:zoom="2.2909091"
     inkscape:cx="154.0873"
     inkscape:cy="159.3254"
     inkscape:window-width="1366"
     inkscape:window-height="704"
     inkscape:window-x="0"
     inkscape:window-y="0"
     inkscape:window-maximized="1"
     inkscape:current-layer="svg17" /><g
     id="g17"
     transform="translate(-19,-23)"><text
       x="130"
       y="190"
       style="font-size:11px;font-family:Arial;text-anchor:start"
       dominant-baseline="middle"
       id="text1">Vout</text><text
       x="80"
       y="30"
       style="font-size:11px;font-family:Arial;text-anchor:start"
       dominant-baseline="middle"
       id="text2">Vin</text><line
       x1="210"
       y1="140"
       x2="210"
       y2="180"
       style="stroke:#000000;stroke-width:2;stroke-linecap:square"
       id="line2" /><line
       x1="140"
       y1="140"
       x2="140"
       y2="180"
       style="stroke:#000000;stroke-width:2;stroke-linecap:square"
       id="line3" /><line
       x1="200"
       y1="140"
       x2="220"
       y2="140"
       style="stroke:#000000;stroke-width:2;stroke-linecap:square"
       id="line4" /><line
       x1="220"
       y1="40"
       x2="220"
       y2="140"
       style="stroke:#000000;stroke-width:2;stroke-linecap:square"
       id="line5" /><line
       x1="90"
       y1="140"
       x2="150"
       y2="140"
       style="stroke:#000000;stroke-width:2;stroke-linecap:square"
       id="line6" /><line
       x1="20"
       y1="140"
       x2="40"
       y2="140"
       style="stroke:#000000;stroke-width:2;stroke-linecap:square"
       id="line7" /><line
       x1="20"
       y1="40"
       x2="20"
       y2="140"
       style="stroke:#000000;stroke-width:2;stroke-linecap:square"
       id="line8" /><line
       x1="140"
       y1="180"
       x2="162"
       y2="180"
       style="stroke:#000000;stroke-width:2;stroke-linecap:square"
       id="line9" /><line
       x1="188"
       y1="180"
       x2="210"
       y2="180"
       style="stroke:#000000;stroke-width:2;stroke-linecap:square"
       id="line10" /><circle
       cx="175"
       cy="180"
       style="fill:#000000;fill-opacity:0;stroke:#000000;stroke-width:2"
       id="ellipse10"
       r="12" /><text
       x="175"
       y="180"
       style="font-size:12px;font-family:Arial;text-anchor:middle"
       dominant-baseline="middle"
       id="text10">V</text><line
       x1="20"
       y1="40"
       x2="104"
       y2="40"
       style="stroke:#000000;stroke-width:2;stroke-linecap:square"
       id="line11" /><circle
       cx="120"
       cy="40"
       style="fill:#000000;fill-opacity:0;stroke:#000000;stroke-width:2"
       id="ellipse11"
       r="16" /><line
       x1="136"
       y1="40"
       x2="220"
       y2="40"
       style="stroke:#000000;stroke-width:2;stroke-linecap:square"
       id="line12" /><path
       d="m 120,40 m -10,0 h 8 m -4,-4 v 8 m 10,-4 h 8"
       style="fill:#000000;fill-opacity:0;stroke:#000000;stroke-width:2;stroke-linecap:square"
       id="path12" /><line
       x1="150"
       y1="140"
       x2="155"
       y2="140"
       style="stroke:#000000;stroke-width:2;stroke-linecap:square"
       id="line13" /><line
       x1="195"
       y1="140"
       x2="200"
       y2="140"
       style="stroke:#000000;stroke-width:2;stroke-linecap:square"
       id="line14" /><path
       d="m 155,140 h 2 l 3,-7 6,14 6,-14 6,14 6,-14 6,14 3,-7 h 2"
       style="fill:#000000;fill-opacity:0;stroke:#000000;stroke-width:2;stroke-linecap:square"
       id="path14" /><text
       x="175"
       y="126"
       style="font-size:11px;font-family:Arial;text-anchor:middle"
       dominant-baseline="baseline"
       id="text14">R2</text><line
       x1="40"
       y1="140"
       x2="45"
       y2="140"
       style="stroke:#000000;stroke-width:2;stroke-linecap:square"
       id="line15" /><line
       x1="85"
       y1="140"
       x2="90"
       y2="140"
       style="stroke:#000000;stroke-width:2;stroke-linecap:square"
       id="line16" /><path
       d="m 45,140 h 2 l 3,-7 6,14 6,-14 6,14 6,-14 6,14 3,-7 h 2"
       style="fill:#000000;fill-opacity:0;stroke:#000000;stroke-width:2;stroke-linecap:square"
       id="path16" /><text
       x="65"
       y="126"
       style="font-size:11px;font-family:Arial;text-anchor:middle"
       dominant-baseline="baseline"
       id="text16">R1</text><circle
       cx="210"
       cy="140"
       style="fill:#000000;fill-opacity:1;stroke:#000000;stroke-width:2"
       id="ellipse16"
       r="2" /><circle
       cx="140"
       cy="140"
       style="fill:#000000;fill-opacity:1;stroke:#000000;stroke-width:2"
       id="ellipse17"
       r="2" /></g><g
     id="g18"
     transform="translate(63.80397,-16.650174)"><g
       id="g19"
       transform="translate(128.95911,-6.3498264)"><text
         x="20"
         y="190"
         style="font-size:11px;font-family:Arial;text-anchor:start"
         dominant-baseline="middle"
         id="text1-1">Vout</text><text
         x="80"
         y="30"
         style="font-size:11px;font-family:Arial;text-anchor:start"
         dominant-baseline="middle"
         id="text2-5">Vin</text><line
         x1="100"
         y1="140"
         x2="100"
         y2="180"
         style="stroke:#000000;stroke-width:2;stroke-linecap:square"
         id="line2-9" /><line
         x1="30"
         y1="140"
         x2="30"
         y2="180"
         style="stroke:#000000;stroke-width:2;stroke-linecap:square"
         id="line3-4" /><line
         x1="200"
         y1="140"
         x2="220"
         y2="140"
         style="stroke:#000000;stroke-width:2;stroke-linecap:square"
         id="line4-9" /><line
         x1="220"
         y1="40"
         x2="220"
         y2="140"
         style="stroke:#000000;stroke-width:2;stroke-linecap:square"
         id="line5-0" /><line
         x1="90"
         y1="140"
         x2="150"
         y2="140"
         style="stroke:#000000;stroke-width:2;stroke-linecap:square"
         id="line6-9" /><line
         x1="20"
         y1="140"
         x2="40"
         y2="140"
         style="stroke:#000000;stroke-width:2;stroke-linecap:square"
         id="line7-1" /><line
         x1="20"
         y1="40"
         x2="20"
         y2="140"
         style="stroke:#000000;stroke-width:2;stroke-linecap:square"
         id="line8-7" /><line
         x1="30"
         y1="180"
         x2="52"
         y2="180"
         style="stroke:#000000;stroke-width:2;stroke-linecap:square"
         id="line9-7" /><line
         x1="78"
         y1="180"
         x2="100"
         y2="180"
         style="stroke:#000000;stroke-width:2;stroke-linecap:square"
         id="line10-1" /><circle
         cx="65"
         cy="180"
         style="fill:#000000;fill-opacity:0;stroke:#000000;stroke-width:2"
         id="ellipse10-1"
         r="12" /><text
         x="65"
         y="180"
         style="font-size:12px;font-family:Arial;text-anchor:middle"
         dominant-baseline="middle"
         id="text10-5">V</text><line
         x1="20"
         y1="40"
         x2="104"
         y2="40"
         style="stroke:#000000;stroke-width:2;stroke-linecap:square"
         id="line11-9" /><circle
         cx="120"
         cy="40"
         style="fill:#000000;fill-opacity:0;stroke:#000000;stroke-width:2"
         id="ellipse11-7"
         r="16" /><line
         x1="136"
         y1="40"
         x2="220"
         y2="40"
         style="stroke:#000000;stroke-width:2;stroke-linecap:square"
         id="line12-7" /><path
         d="m 120,40 m -10,0 h 8 m -4,-4 v 8 m 10,-4 h 8"
         style="fill:#000000;fill-opacity:0;stroke:#000000;stroke-width:2;stroke-linecap:square"
         id="path12-6" /><line
         x1="150"
         y1="140"
         x2="155"
         y2="140"
         style="stroke:#000000;stroke-width:2;stroke-linecap:square"
         id="line13-7" /><line
         x1="195"
         y1="140"
         x2="200"
         y2="140"
         style="stroke:#000000;stroke-width:2;stroke-linecap:square"
         id="line14-3" /><path
         d="m 155,140 h 2 l 3,-7 6,14 6,-14 6,14 6,-14 6,14 3,-7 h 2"
         style="fill:#000000;fill-opacity:0;stroke:#000000;stroke-width:2;stroke-linecap:square"
         id="path14-6" /><text
         x="175"
         y="126"
         style="font-size:11px;font-family:Arial;text-anchor:middle"
         dominant-baseline="baseline"
         id="text14-5">R2</text><line
         x1="40"
         y1="140"
         x2="45"
         y2="140"
         style="stroke:#000000;stroke-width:2;stroke-linecap:square"
         id="line15-6" /><line
         x1="85"
         y1="140"
         x2="90"
         y2="140"
         style="stroke:#000000;stroke-width:2;stroke-linecap:square"
         id="line16-3" /><path
         d="m 45,140 h 2 l 3,-7 6,14 6,-14 6,14 6,-14 6,14 3,-7 h 2"
         style="fill:#000000;fill-opacity:0;stroke:#000000;stroke-width:2;stroke-linecap:square"
         id="path16-9" /><text
         x="65"
         y="126"
         style="font-size:11px;font-family:Arial;text-anchor:middle"
         dominant-baseline="baseline"
         id="text16-4">R1</text><circle
         cx="100"
         cy="140"
         style="fill:#000000;fill-opacity:1;stroke:#000000;stroke-width:2"
         id="ellipse16-8"
         r="2" /><circle
         cx="30"
         cy="140"
         style="fill:#000000;fill-opacity:1;stroke:#000000;stroke-width:2"
         id="ellipse17-1"
         r="2" /></g></g><path
     d="m 101,45 c -16.569,0 -30,13.432 -30,30 0,16.568001 13.432,30 30,30 16.568,0 30,-13.431999 30,-30 0,-16.568 -13.432,-30 -30,-30 z m -6.975,48.000001 -0.02,-0.02 -0.017,0.02 L 80,78.6 l 7.029,-7.164 6.977,7.184 21,-21.619 6.994,7.198 z"
     fill="#43a047"
     id="path1" /><g
     transform="matrix(1.25,0,0,1.25,209.80058,46.099999)"
     enable-background="new"
     id="g13"
     style="fill-opacity:1"><circle
       cx="82.370003"
       cy="23.120001"
       r="24"
       fill="url(#0)"
       id="circle9"
       style="fill:#dd3333;fill-opacity:1" /><path
       d="m 87.77,23.725 5.939,-5.939 c 0.377,-0.372 0.566,-0.835 0.566,-1.373 0,-0.54 -0.189,-0.997 -0.566,-1.374 l -2.747,-2.747 c -0.377,-0.372 -0.835,-0.564 -1.373,-0.564 -0.539,0 -0.997,0.186 -1.374,0.564 l -5.939,5.939 -5.939,-5.939 c -0.377,-0.372 -0.835,-0.564 -1.374,-0.564 -0.539,0 -0.997,0.186 -1.374,0.564 l -2.748,2.747 c -0.377,0.378 -0.566,0.835 -0.566,1.374 0,0.54 0.188,0.997 0.566,1.373 l 5.939,5.939 -5.939,5.94 c -0.377,0.372 -0.566,0.835 -0.566,1.373 0,0.54 0.188,0.997 0.566,1.373 l 2.748,2.747 c 0.377,0.378 0.835,0.564 1.374,0.564 0.539,0 0.997,-0.186 1.374,-0.564 l 5.939,-5.939 5.94,5.939 c 0.377,0.378 0.835,0.564 1.374,0.564 0.539,0 0.997,-0.186 1.373,-0.564 l 2.747,-2.747 c 0.377,-0.372 0.566,-0.835 0.566,-1.373 0,-0.54 -0.188,-0.997 -0.566,-1.373 l -5.939,-5.94"
       fill="#fff"
       fill-opacity=".842"
       id="path11"
       style="fill:#ffffff;fill-opacity:1" /></g></svg>
