<svg version="1.0" viewBox="0 0 495 712.823" class="sim-bb"><path class="sim-bb-wire wire-stroke-purple" d="M262.725 362.823c0-28.379-167.217-12.163-167.217-40.541"/><path class="sim-bb-wire wire-stroke-red" d="M273.225 362.823c0-28.379 52.406-12.163 52.406-40.541"/><path class="sim-bb-wire wire-stroke-blue" d="M285.225 362.823c0-28.379 109.784-12.163 109.784-40.541"/><svg version="1.0" viewBox="0 0 500 408" class="sim" x="69.606" width="355.787" height="290.323" fill="rgba(0,0,0,0)" style="box-sizing:border-box;width:100%;height:100%;display:block"><style><![CDATA[@keyframes sim-flash-animation{0%{fill:#ff0}to{fill:default}}@keyframes sim-flash-stroke-animation{0%{stroke:#ff0}to{stroke:default}}.sim-button-group{cursor:pointer}.sim-button,.sim-button-nut{pointer-events:none}.sim-button-outer:hover{stroke:gray;stroke-width:3px}.sim-button-nut{fill:#704a4a}.sim-button-nut:hover{stroke:1px solid #704a4a}.sim-pin:hover{stroke:#d4af37;stroke-width:2px}.sim-led-back:hover{stroke:#a0a0a0;stroke-width:3px}.sim-label{fill:#000}:focus{outline:0}.sim-pin:focus,:focus .sim-button-outer{stroke:#4d90fe;stroke-width:5px!important}.sim-button-outer.sim-button-group:focus>.sim-button{stroke:#4d90fe;stroke-width:10px!important}.sim-bb-wire{fill:none;stroke-linecap:round;stroke-width:6px;pointer-events:none}.sim-bb-wire-end{stroke:#333;fill:#333}.sim-bb-wire-bare-end{fill:#ccc}.sim-bb-wire-ends-g:hover .sim-bb-wire-end{stroke:red;fill:red}.sim-bb-wire-ends-g:hover .sim-bb-wire-bare-end{stroke:#fff;fill:#fff}.wire-stroke-purple{stroke:#a772a1}.wire-stroke-red{stroke:#f44f43}.wire-stroke-blue{stroke:#01a6e8}]]></style><defs><linearGradient id="gradient-pin-0" x1="0%" y1="0%" x2="0%" y2="100%"><stop offset="0%" style="stop-color:#d4af37"/><stop offset="100%" style="stop-color:#d4af37"/><stop offset="100%" style="stop-color:#f50"/><stop offset="100%" style="stop-color:#f50"/></linearGradient><linearGradient id="gradient-pin-1" x1="0%" y1="0%" x2="0%" y2="100%"><stop offset="0%" style="stop-color:#d4af37"/><stop offset="100%" style="stop-color:#d4af37"/><stop offset="100%" style="stop-color:#f50"/><stop offset="100%" style="stop-color:#f50"/></linearGradient><linearGradient id="gradient-pin-2" x1="0%" y1="0%" x2="0%" y2="100%"><stop offset="0%" style="stop-color:#d4af37"/><stop offset="100%" style="stop-color:#d4af37"/><stop offset="100%" style="stop-color:#f50"/><stop offset="100%" style="stop-color:#f50"/></linearGradient><linearGradient id="gradient-pin-3" x1="0%" y1="0%" x2="0%" y2="100%"><stop offset="0%" style="stop-color:#d4af37"/><stop offset="100%" style="stop-color:#d4af37"/><stop offset="100%" style="stop-color:#f50"/><stop offset="100%" style="stop-color:#f50"/></linearGradient><linearGradient id="gradient-pin-4" x1="0%" y1="0%" x2="0%" y2="100%"><stop offset="0%" style="stop-color:#d4af37"/><stop offset="100%" style="stop-color:#d4af37"/><stop offset="100%" style="stop-color:#f50"/><stop offset="100%" style="stop-color:#f50"/></linearGradient><linearGradient id="gradient-pin-5" x1="0%" y1="0%" x2="0%" y2="100%"><stop offset="0%" style="stop-color:#d4af37"/><stop offset="100%" style="stop-color:#d4af37"/><stop offset="100%" style="stop-color:#f50"/><stop offset="100%" style="stop-color:#f50"/></linearGradient><linearGradient id="gradient-pin-6" x1="0%" y1="0%" x2="0%" y2="100%"><stop offset="0%" style="stop-color:#d4af37"/><stop offset="100%" style="stop-color:#d4af37"/><stop offset="100%" style="stop-color:#f50"/><stop offset="100%" style="stop-color:#f50"/></linearGradient><linearGradient id="gradient-pin-7" x1="0%" y1="0%" x2="0%" y2="100%"><stop offset="0%" style="stop-color:#d4af37"/><stop offset="100%" style="stop-color:#d4af37"/><stop offset="100%" style="stop-color:#f50"/><stop offset="100%" style="stop-color:#f50"/></linearGradient><linearGradient id="gradient-pin-8" x1="0%" y1="0%" x2="0%" y2="100%"><stop offset="0%" style="stop-color:#d4af37"/><stop offset="100%" style="stop-color:#d4af37"/><stop offset="100%" style="stop-color:#f50"/><stop offset="100%" style="stop-color:#f50"/></linearGradient><linearGradient id="gradient-pin-9" x1="0%" y1="0%" x2="0%" y2="100%"><stop offset="0%" style="stop-color:#d4af37"/><stop offset="100%" style="stop-color:#d4af37"/><stop offset="100%" style="stop-color:#f50"/><stop offset="100%" style="stop-color:#f50"/></linearGradient><linearGradient id="gradient-pin-10" x1="0%" y1="0%" x2="0%" y2="100%"><stop offset="0%" style="stop-color:#d4af37"/><stop offset="100%" style="stop-color:#d4af37"/><stop offset="100%" style="stop-color:#f50"/><stop offset="100%" style="stop-color:#f50"/></linearGradient><linearGradient id="gradient-pin-11" x1="0%" y1="0%" x2="0%" y2="100%"><stop offset="0%" style="stop-color:#d4af37"/><stop offset="100%" style="stop-color:#d4af37"/><stop offset="100%" style="stop-color:#f50"/><stop offset="100%" style="stop-color:#f50"/></linearGradient><linearGradient id="gradient-pin-12" x1="0%" y1="0%" x2="0%" y2="100%"><stop offset="0%" style="stop-color:#d4af37"/><stop offset="100%" style="stop-color:#d4af37"/><stop offset="100%" style="stop-color:#f50"/><stop offset="100%" style="stop-color:#f50"/></linearGradient><linearGradient id="gradient-pin-13" x1="0%" y1="0%" x2="0%" y2="100%"><stop offset="0%" style="stop-color:#d4af37"/><stop offset="100%" style="stop-color:#d4af37"/><stop offset="100%" style="stop-color:#f50"/><stop offset="100%" style="stop-color:#f50"/></linearGradient><linearGradient id="gradient-pin-14" x1="0%" y1="0%" x2="0%" y2="100%"><stop offset="0%" style="stop-color:#d4af37"/><stop offset="100%" style="stop-color:#d4af37"/><stop offset="100%" style="stop-color:#f50"/><stop offset="100%" style="stop-color:#f50"/></linearGradient><linearGradient id="gradient-pin-15" x1="0%" y1="0%" x2="0%" y2="100%"><stop offset="0%" style="stop-color:#d4af37"/><stop offset="100%" style="stop-color:#d4af37"/><stop offset="100%" style="stop-color:#f50"/><stop offset="100%" style="stop-color:#f50"/></linearGradient><linearGradient id="gradient-pin-16" x1="0%" y1="0%" x2="0%" y2="100%"><stop offset="0%" style="stop-color:#d4af37"/><stop offset="100%" style="stop-color:#d4af37"/><stop offset="100%" style="stop-color:#f50"/><stop offset="100%" style="stop-color:#f50"/></linearGradient><linearGradient id="gradient-pin-17" x1="0%" y1="0%" x2="0%" y2="100%"><stop offset="0%" style="stop-color:#d4af37"/><stop offset="100%" style="stop-color:#d4af37"/><stop offset="100%" style="stop-color:#f50"/><stop offset="100%" style="stop-color:#f50"/></linearGradient><linearGradient id="gradient-pin-18" x1="0%" y1="0%" x2="0%" y2="100%"><stop offset="0%" style="stop-color:#d4af37"/><stop offset="100%" style="stop-color:#d4af37"/><stop offset="100%" style="stop-color:#f50"/><stop offset="100%" style="stop-color:#f50"/></linearGradient><linearGradient id="gradient-pin-19" x1="0%" y1="0%" x2="0%" y2="100%"><stop offset="0%" style="stop-color:#d4af37"/><stop offset="100%" style="stop-color:#d4af37"/><stop offset="100%" style="stop-color:#f50"/><stop offset="100%" style="stop-color:#f50"/></linearGradient><linearGradient id="gradient-pin-20" x1="0%" y1="0%" x2="0%" y2="100%"><stop offset="0%" style="stop-color:#d4af37"/><stop offset="100%" style="stop-color:#d4af37"/><stop offset="100%" style="stop-color:#f50"/><stop offset="100%" style="stop-color:#f50"/></linearGradient><linearGradient id="gradient-pin-21" x1="0%" y1="0%" x2="0%" y2="100%"><stop offset="0%" style="stop-color:#d4af37"/><stop offset="100%" style="stop-color:#d4af37"/><stop offset="100%" style="stop-color:#f50"/><stop offset="100%" style="stop-color:#f50"/></linearGradient><linearGradient id="gradient-pin-22" x1="0%" y1="0%" x2="0%" y2="100%"><stop offset="0%" style="stop-color:#d4af37"/><stop offset="100%" style="stop-color:#d4af37"/><stop offset="100%" style="stop-color:#f50"/><stop offset="100%" style="stop-color:#f50"/></linearGradient><linearGradient id="gradient-pin-23" x1="0%" y1="0%" x2="0%" y2="100%"><stop offset="0%" style="stop-color:#d4af37"/><stop offset="100%" style="stop-color:#d4af37"/><stop offset="100%" style="stop-color:#f50"/><stop offset="100%" style="stop-color:#f50"/></linearGradient><linearGradient id="gradient-pin-24" x1="0%" y1="0%" x2="0%" y2="100%"><stop offset="0%" style="stop-color:#d4af37"/><stop offset="100%" style="stop-color:#d4af37"/><stop offset="100%" style="stop-color:#f50"/><stop offset="100%" style="stop-color:#f50"/></linearGradient><filter id="ledglow" x="-75%" y="-75%" width="300%" height="300%"><feMorphology operator="dilate" radius="4" in="SourceAlpha" result="thicken"/><feGaussianBlur stdDeviation="5" in="thicken" result="blurred"/><feFlood flood-color="#FF114D" result="glowColor"/><feComposite in="glowColor" in2="blurred" operator="in" result="ledglow_colored"/><feMerge><feMergeNode in="ledglow_colored"/><feMergeNode in="SourceGraphic"/></feMerge></filter><filter id="filterglow" x="-5%" y="-5%" width="120%" height="120%"><feGaussianBlur stdDeviation="5" result="glow"/><feMerge><feMergeNode in="glow"/><feMergeNode in="glow"/><feMergeNode in="glow"/></feMerge></filter></defs><path d="M498 31.9C498 14.3 483.7 0 466.1 0H31.9C14.3 0 0 14.3 0 31.9v342.2C0 391.7 14.3 406 31.9 406h434.2c17.6 0 31.9-14.3 31.9-31.9V31.9zM14.3 206.7c-2.7 0-4.8-2.2-4.8-4.8 0-2.7 2.2-4.8 4.8-4.8 2.7 0 4.8 2.2 4.8 4.8.1 2.7-2.1 4.8-4.8 4.8zm471.9 0c-2.7 0-4.8-2.2-4.8-4.8 0-2.72.2-4.8 4.8-4.8 2.7 0 4.8 2.2 4.8 4.8 0 2.7-2.2 4.8-4.8 4.8z" fill="#111" style="fill:#111"/><path d="M333.8 310.3H165.9c-8.3 0-15-6.7-15-15V127.5c0-8.3 6.7-15 15-15h167.8c8.3 0 15 6.7 15 15v167.8c.1 8.3-6.6 15-14.9 15z" fill="#111" style="fill:#111"/><path class="sim-theme" style="fill:#3affb3" d="M115 56.7 173.1 0H115zM114.2 0H25.9C12.1 2.1 0 13.3 0 27.7v83.9L114.2 0z"/><path class="sim-theme" style="fill:#3affb3" d="M173 27.9 202.5 0H173zM54.1 242.4v31.7H22.4zm392.1-77.8v-31.8h31.7z"/><rect class="sim-led-back" x="154" y="113" width="10" height="20" rx="2" ry="2" style="fill:#202020"/><rect class="sim-led-back" x="200" y="113" width="10" height="20" rx="2" ry="2" style="fill:#202020"/><rect class="sim-led-back" x="246" y="113" width="10" height="20" rx="2" ry="2" style="fill:#202020"/><rect class="sim-led-back" x="292" y="113" width="10" height="20" rx="2" ry="2" style="fill:#202020"/><rect class="sim-led-back" x="338" y="113" width="10" height="20" rx="2" ry="2" style="fill:#202020"/><rect class="sim-led-back" x="154" y="157" width="10" height="20" rx="2" ry="2" style="fill:#202020"/><rect class="sim-led-back" x="200" y="157" width="10" height="20" rx="2" ry="2" style="fill:#202020"/><rect class="sim-led-back" x="246" y="157" width="10" height="20" rx="2" ry="2" style="fill:#202020"/><rect class="sim-led-back" x="292" y="157" width="10" height="20" rx="2" ry="2" style="fill:#202020"/><rect class="sim-led-back" x="338" y="157" width="10" height="20" rx="2" ry="2" style="fill:#202020"/><rect class="sim-led-back" x="154" y="201" width="10" height="20" rx="2" ry="2" style="fill:#202020"/><rect class="sim-led-back" x="200" y="201" width="10" height="20" rx="2" ry="2" style="fill:#202020"/><rect class="sim-led-back" x="246" y="201" width="10" height="20" rx="2" ry="2" style="fill:#202020"/><rect class="sim-led-back" x="292" y="201" width="10" height="20" rx="2" ry="2" style="fill:#202020"/><rect class="sim-led-back" x="338" y="201" width="10" height="20" rx="2" ry="2" style="fill:#202020"/><rect class="sim-led-back" x="154" y="245" width="10" height="20" rx="2" ry="2" style="fill:#202020"/><rect class="sim-led-back" x="200" y="245" width="10" height="20" rx="2" ry="2" style="fill:#202020"/><rect class="sim-led-back" x="246" y="245" width="10" height="20" rx="2" ry="2" style="fill:#202020"/><rect class="sim-led-back" x="292" y="245" width="10" height="20" rx="2" ry="2" style="fill:#202020"/><rect class="sim-led-back" x="338" y="245" width="10" height="20" rx="2" ry="2" style="fill:#202020"/><rect class="sim-led-back" x="154" y="289" width="10" height="20" rx="2" ry="2" style="fill:#202020"/><rect class="sim-led-back" x="200" y="289" width="10" height="20" rx="2" ry="2" style="fill:#202020"/><rect class="sim-led-back" x="246" y="289" width="10" height="20" rx="2" ry="2" style="fill:#202020"/><rect class="sim-led-back" x="292" y="289" width="10" height="20" rx="2" ry="2" style="fill:#202020"/><rect class="sim-led-back" x="338" y="289" width="10" height="20" rx="2" ry="2" style="fill:#202020"/><g class="sim-head"><circle cx="258" cy="75" r="100" fill="transparent"/><path class="sim-button" d="M269.9 50.2h-39.5c-14.1.1-24.6 10.7-24.6 24.8 0 13.9 10.4 24.4 24.3 24.7h39.6c14.2 0 24.8-10.6 24.8-24.7 0-14-10.5-24.7-24.6-24.8m-.2 39" style="pointer-events:unset"/><path class="sim-theme" d="M269.9 50.2h-39.5c-14.1.1-24.6 10.7-24.6 24.8 0 13.9 10.4 24.4 24.3 24.7h39.6c14.2 0 24.8-10.6 24.8-24.7 0-14-10.5-24.7-24.6-24.8m-.2 39h-39.3c-7.7-.1-14-6.4-14-14.2 0-7.8 6.4-14.2 14.2-14.2h39.1c7.8 0 14.2 6.4 14.2 14.2 0 7.9-6.4 14.2-14.2 14.2" style="fill:#3affb3"/><path class="sim-theme" d="M230.6 69.7c-2.9 0-5.3 2.4-5.3 5.3s2.4 5.3 5.3 5.3 5.3-2.4 5.3-5.3-2.4-5.3-5.3-5.3m39.1 10.6c2.9 0 5.3-2.4 5.3-5.3s-2.4-5.3-5.3-5.3-5.3 2.4-5.3 5.3 2.4 5.3 5.3 5.3" style="fill:#3affb3"/></g><path class="sim-pin sim-pin-touch" d="M16.5 341.2c0 .4-.1.9-.1 1.3v60.7c4.1 1.7 8.6 2.7 12.9 2.7h34.4v-64.8c0-13-10.6-23.6-23.7-23.6-12.8.1-23.5 10.6-23.5 23.7zm4.7.4c0-10.7 8.7-19.3 19.3-19.3 10.7 0 19.3 8.7 19.3 19.3 0 10.7-8.6 19.3-19.3 19.3-10.6 0-19.3-8.7-19.3-19.3z" fill="url(#gradient-pin-0)" tabindex="0" aria-label="P0, ANALOG IN" aria-valuemin="0" aria-valuemax="1023" aria-orientation="vertical" aria-valuenow="~0"/><path class="sim-pin sim-pin-touch" d="M139.1 317.3c-12.8 0-22.1 10.3-23.1 23.1V406h46.2v-65.6c0-12.7-10.3-23.1-23.1-23.1zm.2 42.8c-10.7 0-19.3-8.6-19.3-19.3 0-10.7 8.6-19.3 19.3-19.3 10.7 0 19.3 8.7 19.3 19.3 0 10.7-8.6 19.3-19.3 19.3z" fill="url(#gradient-pin-1)"/><path class="sim-pin sim-pin-touch" d="M249 317.3c-12.8 0-22.1 10.3-23.1 23.1V406h46.2v-65.6c0-12.7-10.3-23.1-23.1-23.1zm.4 42.8c-10.7 0-19.3-8.6-19.3-19.3 0-10.7 8.6-19.3 19.3-19.3 10.7 0 19.3 8.7 19.3 19.3 0 10.7-8.6 19.3-19.3 19.3z" fill="url(#gradient-pin-2)"/><path class="sim-pin" d="M0 357.7v19.2c0 10.8 6.2 20.2 14.4 25.2v-44.4H0z" fill="url(#gradient-pin-3)"/><path class="sim-pin" fill="url(#gradient-pin-4)" d="M66.7 356.7h10v50h-10z"/><path class="sim-pin" fill="url(#gradient-pin-5)" d="M79.1 356.7h10v50h-10z"/><path class="sim-pin" fill="url(#gradient-pin-6)" d="M91.4 356.7h10v50h-10z"/><path class="sim-pin" fill="url(#gradient-pin-7)" d="M103.7 356.7h10v50h-10z"/><path class="sim-pin" fill="url(#gradient-pin-8)" d="M164.3 356.7h10v50h-10z"/><path class="sim-pin" fill="url(#gradient-pin-9)" d="M176.6 356.7h10v50h-10z"/><path class="sim-pin" fill="url(#gradient-pin-10)" d="M188.9 356.7h10v50h-10z"/><path class="sim-pin" fill="url(#gradient-pin-11)" d="M201.3 356.7h10v50h-10z"/><path class="sim-pin" fill="url(#gradient-pin-12)" d="M213.6 356.7h10v50h-10z"/><path class="sim-pin" fill="url(#gradient-pin-13)" d="M275.2 356.7h10v50h-10z"/><path class="sim-pin" fill="url(#gradient-pin-14)" d="M287.5 356.7h10v50h-10z"/><path class="sim-pin" fill="url(#gradient-pin-15)" d="M299.8 356.7h10v50h-10z"/><path class="sim-pin" fill="url(#gradient-pin-16)" d="M312.1 356.7h10v50h-10z"/><path class="sim-pin" fill="url(#gradient-pin-17)" d="M324.5 356.7h10v50h-10z"/><path class="sim-pin" fill="url(#gradient-pin-18)" d="M385.1 356.7h10v50h-10z"/><path class="sim-pin" fill="url(#gradient-pin-19)" d="M397.4 356.7h10v50h-10z"/><path class="sim-pin" fill="url(#gradient-pin-20)" d="M409.7 356.7h10v50h-10z"/><path class="sim-pin" fill="url(#gradient-pin-21)" d="M422 356.7h10v50h-10z"/><path class="sim-pin" d="M483.6 402c8.2-5 14.4-14.4 14.4-25.1v-19.2h-14.4V402z" fill="url(#gradient-pin-22)"/><path class="sim-pin" d="M359.9 317.3c-12.8 0-22.1 10.3-23.1 23.1V406H383v-65.6c0-12.7-10.3-23.1-23.1-23.1zm.1 42.8c-10.7 0-19.3-8.6-19.3-19.3 0-10.7 8.6-19.3 19.3-19.3 10.7 0 19.3 8.7 19.3 19.3 0 10.7-8.6 19.3-19.3 19.3z" fill="url(#gradient-pin-23)"/><path class="sim-pin" d="M458 317.6c-13 0-23.6 10.6-23.6 23.6V406H469c4.3 0 8.4-1 12.6-2.7v-62c0-13.2-10.6-23.7-23.6-23.7zm-.2 43.3c-10.7 0-19.3-8.6-19.3-19.3 0-10.7 8.6-19.3 19.3-19.3 10.7 0 19.3 8.7 19.3 19.3 0 10.6-8.7 19.3-19.3 19.3z" fill="url(#gradient-pin-24)"/><text x="67" y="345" style="user-drag:none;user-select:none;-moz-user-select:none;-webkit-user-drag:none;-webkit-user-select:none;-ms-user-select:none;font-family:&quot;Lucida Console&quot;,Monaco,monospace;font-size:20px;fill:#fff;pointer-events:none">~0</text><g class="sim-button-group" tabindex="0" aria-label="A" style="fill:#979797"><rect class="sim-button-outer" x="25.9" y="176.4" rx="4" ry="4" width="56.2" height="56.2"/><circle class="sim-button-nut" cx="35.9" cy="186.4" r="6"/><circle class="sim-button-nut" cx="35.9" cy="222.6" r="6"/><circle class="sim-button-nut" cx="72.1" cy="222.6" r="6"/><circle class="sim-button-nut" cx="72.1" cy="186.4" r="6"/></g><path class="sim-button" d="M69.7 203.5c0 8.7-7 15.7-15.7 15.7s-15.7-7-15.7-15.7 7-15.7 15.7-15.7 15.7 7.1 15.7 15.7" fill="#111" style="fill:#111"/><g class="sim-button-group" tabindex="0" aria-label="B" style="fill:#979797"><rect class="sim-button-outer" x="418.1" y="176.4" rx="4" ry="4" width="56.2" height="56.2"/><circle class="sim-button-nut" cx="428.1" cy="186.4" r="6"/><circle class="sim-button-nut" cx="428.1" cy="222.6" r="6"/><circle class="sim-button-nut" cx="464.3" cy="222.6" r="6"/><circle class="sim-button-nut" cx="464.3" cy="186.4" r="6"/></g><path class="sim-button" d="M461.9 203.5c0 8.7-7 15.7-15.7 15.7s-15.7-7-15.7-15.7 7-15.7 15.7-15.7 15.7 7.1 15.7 15.7" fill="#111" style="fill:#111"/><path class="sim-label" d="M35.7 376.4c0-2.8 2.1-5.1 5.5-5.1 3.3 0 5.5 2.4 5.5 5.1v4.7c0 2.8-2.2 5.1-5.5 5.1s-5.5-2.4-5.5-5.1v-4.7zm7.6 0c0-1.3-.8-2.3-2.2-2.3-1.3 0-2.1 1.1-2.1 2.3v4.7c0 1.2.8 2.3 2.1 2.3s2.2-1.1 2.2-2.3v-4.7zm92.9-2.3c2.8 0 3.4-.8 3.4-2.5h2.9v14.3h-3.4v-9.5h-3v-2.3zm112.4 4.4c1.7-1 3-1.7 3-3.1 0-1.1-.7-1.6-1.6-1.6-1 0-1.8.6-1.8 2.1h-3.3c0-2.6 1.8-4.6 5.1-4.6 2.6 0 4.9 1.3 4.9 4.3 0 2.4-2.3 3.9-3.8 4.7-2 1.3-2.5 1.8-2.5 2.9h6.1v2.7h-10c.1-4.7 1.7-6 3.9-7.4z"/><path d="m48.1 270.9-.6-1.7h-5.1l-.6 1.7h-3.5l5.1-14.3h3.1l5.2 14.3h-3.6zM45 260.7l-1.8 5.9h3.5l-1.7-5.9zm404.1-124.9h5.9c3.9 0 4.7 2.4 4.7 3.9 0 1.8-1.4 2.9-2.5 3.2.9 0 2.6 1.1 2.6 3.3 0 1.5-.8 4-4.7 4h-6v-14.4zm5.3 5.9c1.6 0 2-1 2-1.7 0-.6-.3-1.7-2-1.7h-2v3.4h2zm-2 2.4v3.5h2.1c1.6 0 2-1 2-1.8 0-.7-.4-1.8-2-1.8h-2.1z" style="fill:#000"/><path class="sim-label" d="M352.1 381.1c0 1.6.9 2.5 2.2 2.5 1.2 0 1.9-.9 1.9-1.9 0-1.2-.6-2-2.1-2h-1.3v-2.6h1.3c1.5 0 1.9-.7 1.9-1.8s-.7-1.6-1.6-1.6c-1.4 0-1.8.8-1.8 2.1h-3.3c0-2.4 1.5-4.6 5.1-4.6 2.6 0 5 1.3 5 4 0 1.6-1 2.8-2.1 3.2 1.3.5 2.3 1.6 2.3 3.5 0 2.7-2.4 4.3-5.2 4.3-3.5 0-5.5-2.1-5.5-5.1h3.2zm16.4 4.8h-3.1l-5.1-14.3h3.5l3.1 10.1 3.1-10.1h3.6l-5.1 14.3zm75.9-7.6h7.4v2.5h-1.5c-.6 3.3-3 5.5-7.1 5.5-4.8 0-7.5-3.5-7.5-7.5 0-3.9 2.8-7.5 7.5-7.5 3.8 0 6.4 2.3 6.6 5h-3.5c-.2-1.1-1.4-2.2-3.1-2.2-2.7 0-4.1 2.3-4.1 4.7 0 2.5 1.4 4.7 4.4 4.7 2 0 3.2-1.2 3.4-2.7h-2.5v-2.5zm17 2.6v-9.3h3.3v14.3h-3.5l-5.2-9.2v9.2h-3.3v-14.3h3.5l5.2 9.3zm11.3-9.3c4.8 0 7.5 3.5 7.5 7.2s-2.7 7.2-7.5 7.2h-5.3v-14.3h5.3zm-1.9 2.8v8.6h1.8c2.7 0 4.2-2.1 4.2-4.3s-1.6-4.3-4.2-4.3h-1.8z"/></svg><g class="sim-bb-wire-group"><g class="sim-bb-wire-ends-g sim-bb-wire-id-0"><circle cx="262.725" cy="471.573" r="4.875" class="sim-bb-wire-end" style="stroke-width:3.75px;fill:#a772a1"/><path class="sim-bb-wire-bare-end" d="M89.208 274.682h12.6v12.6h-12.6z"/><path class="sim-bb-wire-end" style="stroke-width:3.75px" d="M90.468 287.282h10.08l2.16 25.2-4.32 10.8h-5.76l-4.32-10.8z"/></g><path class="sim-bb-wire wire-stroke-purple" d="M262.725 471.573v-108.75"/></g><g class="sim-bb-wire-group"><g class="sim-bb-wire-ends-g sim-bb-wire-id-1"><circle cx="273.225" cy="471.573" r="4.875" class="sim-bb-wire-end" style="stroke-width:3.75px;fill:#f44f43"/><path class="sim-bb-wire-bare-end" d="M319.331 274.682h12.6v12.6h-12.6z"/><path class="sim-bb-wire-end" style="stroke-width:3.75px" d="M320.59 287.282h10.08l2.16 25.2-4.32 10.8h-5.76l-4.32-10.8z"/></g><path class="sim-bb-wire wire-stroke-red" d="M273.225 471.573v-108.75"/></g><g class="sim-bb-wire-group"><g class="sim-bb-wire-ends-g sim-bb-wire-id-2"><circle cx="285.225" cy="471.573" r="4.875" class="sim-bb-wire-end" style="stroke-width:3.75px;fill:#01a6e8"/><path class="sim-bb-wire-bare-end" d="M388.709 274.682h12.6v12.6h-12.6z"/><path class="sim-bb-wire-end" style="stroke-width:3.75px" d="M389.97 287.282h10.08l2.16 25.2-4.32 10.8h-5.76l-4.32-10.8z"/></g><path class="sim-bb-wire wire-stroke-blue" d="M285.225 471.573v-108.75"/></g><g id="layer1" stroke-linecap="round" stroke-linejoin="round" transform="translate(217.725 464.073)" class="sim-microservo-cmp sim-cmp"><path id="path8212" fill="#0061ff" stroke-width="6.6" d="M.378 44.61v255.064h112.188V44.61H.378z"/><path id="crankbase" fill="#00f" stroke-width="6.6" d="M56.57 88.047C25.328 88.047 0 113.373 0 144.615c.02 22.352 11.807 42.596 32.238 51.66.03 3.318.095 5.24.088 7.938 0 13.947 11.307 25.254 25.254 25.254 13.947 0 25.254-11.307 25.254-25.254-.006-2.986-.415-5.442-.32-8.746 19.487-9.45 30.606-29.195 30.625-50.852 0-31.24-25.33-56.568-56.57-56.568z"/><path id="lowertip" fill="#00a2ff" stroke-width="2" d="M.476 260.78v38.894h53.82v-10.486a6.82 6.566 0 0 1-4.545-6.182 6.82 6.566 0 0 1 6.82-6.566 6.82 6.566 0 0 1 6.82 6.566 6.82 6.566 0 0 1-4.545 6.182v10.486h53.82V260.78H.475z"/><path id="uppertip" fill="#00a2ff" stroke-width="2" d="M112.566 83.503V44.61h-53.82v10.487a6.82 6.566 0 0 1 4.544 6.18 6.82 6.566 0 0 1-6.818 6.568 6.82 6.566 0 0 1-6.82-6.567 6.82 6.566 0 0 1 4.546-6.18V44.61H.378v38.893h112.188z"/><path id="VCC" fill="red" stroke-width="2" d="M53.72 21.93h5.504v22.627H53.72z"/><path id="LOGIC" fill="#fc0" stroke-width="2" d="M47.3 21.93h5.503v22.627H47.3z"/><path id="GND" fill="#a02c2c" stroke-width="2" d="M60.14 21.93h5.505v22.627H60.14z"/><path id="connector" stroke-width="2" d="M45.064 0a1.488 1.488 0 0 0-1.488 1.488v24.5a1.488 1.488 0 0 0 1.488 1.487h22.71a1.488 1.488 0 0 0 1.49-1.488v-24.5A1.488 1.488 0 0 0 67.774 0h-22.71z"/><g id="crank" transform="rotate(180 56.661 523.131)"><path id="arm" fill="#ececec" stroke="#000" stroke-width="1.372" d="M47.767 880.88c-4.447 1.162-8.412 8.278-8.412 18.492s3.77 18.312 8.412 18.494c8.024.314 78.496 5.06 78.51-16.952.012-22.013-74.377-21.117-78.51-20.035z"/><circle id="path8216" cx="56.661" cy="899.475" r="8.972" fill="gray" stroke-width="2"/></g></g><g/></svg>